<?xml version="1.0" standalone="no"?>
<!DOCTYPE svg PUBLIC "-//W3C//DTD SVG 20010904//EN"
 "http://www.w3.org/TR/2001/REC-SVG-20010904/DTD/svg10.dtd">
<svg version="1.0" xmlns="http://www.w3.org/2000/svg"
 width="2590.000000pt" height="2590.000000pt" viewBox="0 0 2590.000000 2590.000000"
 preserveAspectRatio="xMidYMid meet">

<g transform="translate(0.000000,2590.000000) scale(0.100000,-0.100000)"
fill="#000000" stroke="none">
<path d="M10455 24044 c-16 -2 -69 -9 -117 -15 -423 -53 -825 -273 -1077 -590
-42 -53 -83 -109 -92 -125 -10 -16 -35 -59 -57 -96 -22 -36 -48 -88 -58 -115
-10 -26 -23 -57 -30 -68 -19 -32 -35 -89 -42 -156 l-7 -62 -230 -2 c-130 -1
-252 -6 -280 -13 -27 -6 -111 -21 -185 -32 -152 -25 -283 -56 -415 -102 -110
-37 -318 -129 -310 -136 3 -3 -48 -33 -112 -67 -208 -107 -333 -203 -545 -417
-168 -169 -224 -236 -331 -396 -98 -146 -168 -292 -215 -447 -71 -238 -125
-486 -177 -809 -14 -87 -27 -162 -29 -165 -3 -3 -9 -78 -16 -166 -16 -234 -47
-433 -100 -645 -21 -83 -122 -701 -116 -707 5 -5 51 242 76 407 21 140 99 542
106 550 3 2 2 -32 -1 -75 -3 -44 -10 -168 -16 -275 -5 -107 -16 -224 -24 -260
-7 -36 -19 -126 -25 -200 -6 -74 -22 -225 -36 -335 -24 -195 -25 -202 -70
-295 -47 -99 -265 -492 -270 -487 -1 1 15 61 37 132 47 150 119 427 119 453
-1 9 -25 -66 -55 -168 -57 -196 -192 -581 -252 -715 -41 -92 -77 -194 -99
-279 -14 -55 -22 -65 -123 -162 -59 -57 -108 -109 -108 -116 0 -7 -15 -35 -34
-61 -33 -47 -34 -52 -37 -155 -3 -76 4 -159 22 -290 29 -203 31 -243 15 -259
-14 -14 -68 -114 -131 -243 -76 -154 -77 -205 -6 -254 18 -13 21 -28 25 -123
4 -107 4 -109 -47 -278 -29 -93 -58 -190 -65 -215 -20 -72 -92 -206 -124 -231
-16 -13 -92 -73 -168 -133 -76 -60 -155 -130 -175 -154 -48 -59 -86 -179 -133
-417 -20 -99 -41 -198 -47 -220 -41 -149 -78 -257 -140 -403 -39 -92 -97 -230
-128 -307 -32 -77 -78 -174 -102 -215 -72 -122 -117 -235 -213 -540 -92 -288
-207 -790 -192 -832 2 -7 7 7 11 32 14 81 145 608 186 746 57 191 161 474 174
474 2 0 0 -17 -5 -37 -24 -103 -4 -69 62 107 22 58 48 117 60 133 11 15 15 27
10 27 -6 0 0 26 14 58 88 209 258 654 279 733 14 52 41 175 61 274 56 281 78
338 158 414 69 65 374 301 390 301 4 0 21 9 39 21 l33 21 -28 -5 c-29 -5 -28
-4 14 39 35 36 45 41 58 31 12 -9 13 -9 7 1 -4 7 -2 12 4 12 6 0 35 24 64 53
29 28 78 65 107 81 179 97 217 115 242 116 15 0 27 4 27 9 0 4 17 5 38 1 21
-3 47 -3 58 1 19 7 19 8 0 8 -47 2 5 15 79 21 6 0 5 4 -2 8 -6 4 6 7 27 7 30
0 36 -2 28 -12 -6 -7 -19 -13 -29 -13 -11 0 -19 -5 -19 -11 0 -6 -9 -8 -20 -4
-13 4 -20 2 -20 -7 0 -7 -41 -33 -91 -58 -50 -25 -129 -76 -176 -114 -47 -38
-82 -63 -78 -55 17 27 -28 -13 -133 -121 -56 -58 -107 -104 -112 -102 -6 1 -9
-1 -8 -6 5 -14 -40 -54 -53 -47 -8 5 -10 4 -5 -3 4 -7 -6 -17 -27 -25 -18 -8
-53 -27 -78 -43 -24 -15 -48 -29 -54 -30 -30 -5 -179 -116 -236 -176 -53 -55
-68 -79 -79 -121 -7 -29 -27 -88 -45 -132 -31 -74 -105 -305 -119 -366 -3 -15
-10 -56 -15 -93 -9 -60 -58 -196 -97 -269 -23 -41 -161 -410 -189 -502 -123
-413 -128 -429 -200 -633 -47 -135 -118 -314 -148 -377 -14 -27 -34 -83 -46
-124 -19 -70 -20 -84 -10 -227 10 -138 10 -154 -6 -178 -10 -15 -13 -26 -6
-26 6 0 11 5 11 11 0 16 31 38 54 39 16 0 18 -6 13 -40 -3 -22 -2 -40 2 -40
14 0 43 38 37 48 -3 5 1 15 9 22 10 9 15 9 15 1 0 -6 9 -11 20 -11 17 0 20 -7
20 -52 0 -29 -4 -58 -8 -64 -11 -17 -47 -26 -76 -18 -22 5 -24 10 -19 35 7 36
-4 38 -17 3 -9 -23 -14 -25 -43 -20 -81 17 -100 18 -123 6 -13 -8 -24 -19 -24
-26 0 -15 54 -47 63 -38 7 8 77 -26 77 -37 0 -12 47 -11 55 1 3 6 35 10 71 10
72 0 73 -1 48 -73 -8 -25 -14 -57 -12 -71 3 -24 3 -24 25 -6 12 9 25 28 27 41
3 13 9 38 13 54 11 51 38 89 79 112 54 30 66 43 61 64 -3 10 3 25 14 35 18 16
19 16 19 -2 0 -25 -52 -206 -78 -269 -33 -82 -69 -155 -74 -150 -2 2 -5 -11
-6 -30 -2 -20 -16 -59 -31 -88 -24 -43 -43 -60 -113 -103 -45 -29 -102 -68
-125 -88 -23 -20 -78 -55 -122 -77 -95 -47 -172 -113 -198 -171 -11 -24 -39
-126 -62 -228 -38 -167 -58 -244 -106 -406 -25 -85 -83 -161 -201 -264 -386
-337 -430 -424 -400 -786 8 -94 10 -181 5 -214 -4 -30 -8 -89 -8 -130 -1 -41
-19 -199 -41 -350 -22 -151 -45 -308 -51 -349 -7 -49 -23 -99 -46 -145 -19
-39 -46 -100 -58 -136 -13 -36 -40 -108 -60 -160 -138 -356 -224 -685 -251
-951 l-6 -67 46 -27 c43 -25 50 -26 151 -22 94 4 105 3 101 -12 -24 -76 -38
-170 -37 -244 1 -118 6 -133 43 -141 44 -9 86 -7 106 4 9 5 71 23 136 40 114
30 120 30 130 13 5 -10 24 -31 41 -48 17 -16 53 -59 80 -94 280 -358 474 -535
720 -655 107 -52 261 -106 304 -106 12 0 24 -7 27 -15 3 -8 -36 -89 -90 -183
-52 -93 -108 -195 -122 -228 -15 -32 -36 -69 -47 -81 -11 -12 -46 -98 -77
-190 l-58 -168 -348 1 c-225 1 -435 7 -589 18 -280 21 -391 18 -570 -14 -105
-18 -163 -22 -302 -21 -167 1 -173 0 -173 -19 0 -19 -7 -20 -240 -20 -233 0
-240 -1 -240 -20 0 -18 -7 -20 -62 -20 -96 0 -168 -11 -168 -25 0 -16 -23 -25
-61 -25 -27 0 -29 -3 -29 -35 0 -35 0 -35 -45 -35 -25 0 -45 -4 -45 -10 0 -5
-16 -10 -35 -10 -32 0 -35 -2 -35 -30 0 -28 -2 -30 -40 -30 l-40 0 0 -40 c0
-33 -3 -40 -20 -40 -19 0 -20 -7 -20 -160 l0 -160 60 0 c53 0 60 -2 60 -20 0
-11 -7 -20 -15 -20 -8 0 -15 -9 -15 -20 0 -18 7 -20 69 -20 54 0 70 -4 75 -16
9 -22 8 -24 -11 -25 -10 -1 -2 -6 17 -12 19 -6 40 -16 45 -23 6 -6 29 -14 52
-17 23 -3 50 -12 58 -21 11 -11 34 -16 72 -16 31 0 54 -2 52 -4 -4 -4 -291
-18 -421 -20 -36 -1 -69 -4 -73 -8 -4 -3 -4 -41 0 -82 7 -71 9 -76 31 -76 20
0 24 -5 24 -30 0 -23 4 -30 20 -30 13 0 20 -7 20 -20 0 -13 7 -20 20 -20 16 0
20 -7 20 -30 0 -23 -4 -30 -20 -30 -13 0 -20 -7 -20 -20 0 -13 -7 -20 -20 -20
-19 0 -20 -7 -20 -169 0 -173 5 -231 22 -231 17 0 38 -28 38 -50 0 -25 22 -50
44 -50 9 0 16 -4 16 -10 0 -5 8 -10 19 -10 13 0 20 -9 24 -30 4 -18 13 -30 22
-30 8 0 15 -4 15 -10 0 -5 9 -10 20 -10 13 0 20 -7 20 -19 0 -21 19 -31 59
-31 14 0 36 -6 47 -14 11 -8 46 -16 79 -19 105 -10 201 -25 256 -41 29 -9 69
-16 90 -16 47 0 76 -10 59 -20 -7 -4 20 -13 61 -20 56 -10 84 -10 117 -1 61
16 62 16 164 -39 51 -28 104 -53 118 -57 14 -3 50 -18 80 -33 30 -15 114 -46
185 -70 72 -23 154 -51 183 -61 29 -11 62 -19 72 -19 11 0 20 -4 20 -8 0 -4 8
-8 18 -9 9 -1 71 -15 138 -32 66 -17 138 -33 160 -36 21 -4 55 -10 74 -15 19
-5 62 -12 95 -16 33 -3 64 -9 70 -12 5 -4 26 -7 45 -8 19 -1 82 -7 139 -13 57
-6 140 -11 185 -12 44 0 90 -4 101 -9 17 -7 17 -9 3 -9 -10 -1 -18 -5 -18 -11
0 -13 70 -13 90 0 12 8 11 10 -7 10 -12 0 -25 5 -29 11 -4 8 3 9 22 5 16 -3
50 -8 76 -12 37 -5 48 -10 48 -24 0 -15 10 -19 60 -22 56 -3 76 4 48 15 -7 3
15 6 49 6 53 1 65 -2 75 -19 14 -21 44 -27 50 -9 5 14 451 14 523 0 80 -16
185 -30 260 -37 105 -9 184 -39 290 -109 130 -86 295 -138 630 -201 11 -2 43
-6 70 -8 28 -3 79 -10 115 -16 36 -6 85 -13 110 -16 25 -3 58 -10 73 -16 23
-9 31 -8 37 3 7 11 12 10 28 -4 10 -9 21 -14 25 -11 3 3 42 6 87 5 78 -1 115
8 133 33 6 8 10 7 14 -1 2 -7 13 -13 24 -13 10 0 19 -4 19 -10 0 -5 9 -10 19
-10 11 0 21 -5 23 -12 6 -17 54 -2 83 28 17 17 38 26 61 27 18 1 34 5 34 9 0
4 9 8 20 8 17 0 20 7 20 40 l0 40 50 0 c43 0 50 3 50 20 0 13 7 20 20 20 17 0
20 -7 20 -40 0 -33 3 -40 20 -40 17 0 20 7 20 40 0 33 3 40 20 40 13 0 20 7
20 20 0 13 7 20 20 20 17 0 20 7 20 40 l0 40 40 0 40 0 0 40 c0 33 3 40 20 40
16 0 20 7 20 30 0 33 -16 30 175 36 28 1 127 4 220 8 158 6 179 4 295 -19 69
-14 154 -31 190 -37 76 -12 308 -4 323 11 6 6 18 11 26 11 13 0 69 26 150 71
50 27 191 168 197 198 4 14 19 43 35 63 16 20 29 46 29 57 0 29 54 43 162 40
125 -3 252 14 398 52 8 2 21 10 28 16 7 7 25 16 40 20 29 7 72 49 72 70 0 7 9
18 20 25 11 7 20 21 20 30 0 10 5 18 10 18 6 0 10 7 10 16 0 9 14 29 30 44 17
15 30 35 30 43 0 9 9 19 20 22 11 3 20 13 20 21 0 8 7 14 16 14 9 0 18 9 21
20 3 11 12 20 19 20 8 0 14 4 14 9 0 5 11 12 25 15 14 4 40 20 57 36 17 17 35
30 39 30 5 0 24 16 43 35 20 19 38 35 42 35 9 0 43 43 44 55 0 6 9 16 20 23
14 8 20 23 20 47 0 19 5 35 10 35 6 0 10 20 10 44 0 37 -4 45 -22 49 -22 6
-22 6 7 37 38 40 55 91 55 170 0 75 -31 154 -73 187 l-25 19 48 76 c27 42 53
92 59 112 5 20 24 53 42 73 73 83 93 173 108 468 8 167 0 222 -39 269 -49 59
-69 76 -90 76 -11 0 -20 7 -20 15 0 8 -5 15 -11 15 -5 0 -7 -4 -4 -10 3 -5 2
-10 -3 -10 -10 0 -52 47 -52 59 0 4 -12 17 -26 27 -15 10 -38 29 -52 42 -14
12 -29 22 -33 22 -5 0 -9 9 -9 20 0 13 -7 20 -20 20 -16 0 -20 7 -20 33 0 26
-6 36 -25 45 -14 7 -32 12 -40 12 -8 0 -15 7 -15 16 0 11 -6 15 -20 11 -11 -3
-18 -2 -15 2 2 4 -11 14 -30 21 -19 8 -35 17 -35 22 0 4 -12 8 -26 8 -15 0
-35 10 -45 22 -20 23 -121 68 -154 68 -26 0 -106 28 -124 43 -20 17 -82 36
-97 30 -8 -3 -14 0 -14 6 0 6 -7 8 -15 5 -8 -4 -15 -2 -15 3 0 20 -79 42 -170
47 -52 3 -97 5 -99 6 -2 0 -1 6 2 14 4 9 -7 17 -31 24 -34 10 -81 21 -99 23
-5 1 -25 8 -46 16 -23 9 -53 13 -77 10 -25 -3 -46 0 -59 10 -12 8 -21 11 -21
8 0 -18 -202 113 -317 207 -73 58 -93 66 -50 20 20 -23 21 -25 2 -18 -11 4
-41 12 -68 18 -36 7 -51 16 -62 38 -8 15 -22 31 -32 34 -26 11 -23 12 317 125
517 173 570 188 833 232 372 62 585 111 722 167 91 37 318 153 455 232 134 78
154 86 475 188 44 14 85 28 90 33 6 4 66 24 135 43 69 20 141 43 160 50 67 27
466 226 575 287 61 34 139 77 175 94 88 44 290 180 408 275 145 117 257 230
423 425 126 149 277 298 411 408 58 48 146 130 195 184 48 53 145 155 215 227
70 72 141 149 158 171 51 64 173 252 224 348 l48 88 47 -38 c75 -61 165 -160
252 -278 66 -90 91 -135 138 -250 59 -146 106 -226 144 -247 25 -13 176 -12
213 2 19 8 27 4 46 -21 55 -73 84 -99 116 -105 19 -4 32 -2 32 4 0 5 -16 13
-35 16 -23 5 -42 17 -57 39 -30 42 -48 76 -48 92 0 7 -4 15 -9 17 -4 2 -19 22
-32 44 -76 132 -119 204 -161 269 -50 76 -54 95 -34 160 l12 40 36 -65 c19
-36 50 -92 68 -125 30 -56 127 -195 136 -195 9 0 -94 179 -162 281 -41 61 -74
116 -74 122 0 14 112 202 145 243 l23 29 40 -88 c41 -88 157 -272 188 -298 10
-8 7 3 -9 28 -15 24 -27 45 -27 47 0 3 -40 72 -90 153 -49 81 -90 156 -90 168
0 11 14 38 30 59 17 22 30 36 30 32 0 -4 19 12 43 34 23 23 54 50 69 61 l27
20 14 -23 c8 -13 43 -70 78 -128 63 -106 135 -210 145 -210 12 0 -84 157 -176
289 -59 85 -64 72 55 152 68 46 114 71 217 120 13 7 100 24 220 44 20 3 28 -1
33 -16 6 -18 66 -83 219 -239 79 -80 164 -190 177 -228 8 -25 8 -40 -1 -63
-16 -37 -26 -37 -34 2 -9 44 -8 47 12 53 9 3 -8 4 -38 2 -104 -6 -328 -110
-504 -235 -43 -31 -85 -60 -93 -66 -50 -34 -242 -235 -254 -265 -7 -19 -30
-61 -51 -94 -43 -67 -78 -155 -78 -194 1 -27 1 -27 19 7 16 31 19 33 25 15 3
-11 21 -34 38 -50 18 -16 26 -20 17 -9 -9 11 -24 43 -34 71 l-18 50 42 87 c22
48 41 91 41 96 0 14 74 93 154 165 l76 68 12 -29 c56 -135 102 -217 163 -290
38 -46 71 -81 73 -78 8 7 -102 197 -130 224 -35 34 -88 138 -88 173 0 21 14
36 73 80 152 112 281 182 415 227 51 17 95 31 98 31 2 0 4 -15 4 -34 0 -33 86
-214 117 -246 8 -8 -6 25 -31 74 -48 93 -55 116 -33 116 20 0 49 68 42 99 -6
27 -77 133 -167 250 -43 56 -46 64 -37 94 5 17 12 69 15 113 7 80 6 82 -26
128 -17 26 -80 98 -138 160 -59 62 -143 155 -188 207 -45 52 -162 178 -261
279 -219 225 -317 338 -270 315 6 -4 -37 41 -96 99 -113 109 -106 105 -282
169 -17 7 -141 122 -295 277 -146 146 -355 347 -465 445 -110 98 -254 229
-319 290 -128 118 -131 123 -211 320 -96 238 -134 287 -303 391 -106 66 -117
79 -174 201 -128 278 -242 519 -320 676 -48 98 -88 179 -88 181 0 2 -19 44
-41 92 -56 120 -124 280 -139 329 -7 22 -18 54 -26 70 -7 17 -49 122 -93 235
-187 482 -290 725 -460 1086 -45 95 -71 164 -71 186 0 18 6 85 14 148 42 341
66 787 72 1345 2 248 6 612 8 810 l4 360 41 182 c23 100 41 194 42 210 l1 28
8 -27 c4 -15 13 -163 19 -330 18 -467 19 -472 13 -53 -8 545 -8 595 8 820 8
110 15 263 14 340 -2 261 -23 648 -44 785 -38 253 -40 271 -35 281 7 10 -56
250 -117 444 -47 150 -135 365 -183 445 -18 30 -52 89 -76 130 -24 41 -78 120
-119 175 -41 55 -83 113 -93 128 -41 65 -220 277 -293 348 -44 41 -146 140
-229 220 -82 80 -179 165 -215 190 -289 200 -535 309 -865 384 -59 13 -109 26
-112 29 -8 8 64 175 119 274 71 127 159 255 238 344 72 82 252 248 268 248 6
0 12 3 14 8 7 16 179 124 250 156 124 58 250 100 392 133 230 52 346 33 625
-103 447 -217 809 -547 1033 -939 99 -175 190 -411 227 -593 56 -272 63 -507
26 -772 -4 -27 -3 -30 4 -15 9 20 10 20 10 -1 2 -43 -30 -197 -59 -286 -16
-51 -27 -94 -25 -96 2 -2 17 37 33 87 16 50 32 88 37 83 4 -4 4 3 1 16 -4 12
-3 22 2 22 11 0 26 71 43 205 7 50 16 95 21 102 16 21 27 192 28 428 0 248 -9
382 -40 558 -18 106 -80 339 -100 375 -5 9 -31 64 -58 122 -109 231 -293 435
-527 585 -335 215 -666 313 -1080 320 -104 2 -203 1 -220 -1z m-276 -4049 c1
-269 -6 -352 -50 -575 -32 -167 -59 -274 -90 -357 -10 -29 -15 -53 -11 -53 20
0 100 261 137 445 35 175 48 323 49 562 l1 212 38 -147 c20 -81 45 -184 54
-229 16 -79 16 -83 -2 -103 -15 -17 -16 -20 -3 -20 18 0 26 -43 30 -150 2 -61
0 -65 -28 -83 l-29 -18 28 7 c15 3 27 2 27 -2 0 -5 5 -52 10 -104 l9 -95 -71
-68 c-39 -37 -68 -70 -65 -73 3 -4 31 19 62 50 31 31 60 56 65 56 6 0 10 -12
10 -28 0 -21 -18 -45 -75 -102 -75 -75 -93 -100 -54 -80 20 11 20 11 5 -18
-20 -40 -46 -110 -52 -146 -3 -16 -10 -40 -15 -53 -5 -14 -5 -22 0 -19 5 3 12
-20 16 -52 8 -69 44 -153 79 -183 l26 -23 -27 -12 -28 -12 35 -1 c118 -1 296
46 260 69 -12 8 -13 13 -3 27 7 10 20 30 28 46 15 25 14 27 -4 27 -11 0 -29
-13 -40 -29 -31 -43 -127 -73 -169 -53 -9 5 -30 15 -46 23 -45 22 -54 44 -34
79 9 17 14 38 10 52 -5 21 -2 20 27 -9 24 -25 41 -33 67 -33 71 0 148 55 185
132 14 30 19 35 14 15 -5 -26 -4 -27 22 -21 16 3 33 7 40 9 21 7 55 145 56
228 1 42 4 77 7 77 4 0 25 -14 48 -32 63 -48 68 -115 21 -268 -11 -39 -19 -74
-15 -77 9 -9 80 57 113 107 37 54 53 100 55 163 2 35 6 47 18 47 29 0 38 -16
45 -80 6 -56 3 -74 -20 -135 -53 -138 -76 -220 -105 -374 -17 -86 -36 -187
-45 -226 -8 -38 -19 -99 -25 -135 -23 -132 -99 -332 -168 -440 -66 -104 -241
-305 -346 -398 -110 -96 -265 -221 -383 -307 -37 -27 -81 -61 -96 -75 -40 -35
-87 -60 -117 -60 -62 0 -533 152 -651 210 -9 5 -61 27 -115 50 -129 55 -382
193 -611 333 -83 50 -83 50 -83 92 0 61 28 445 45 620 8 83 15 158 15 168 0
18 2 17 34 -3 19 -11 48 -23 65 -25 17 -2 40 -6 52 -10 18 -6 20 -5 10 14 -7
12 -23 28 -36 37 -19 12 -95 129 -95 146 0 1 38 -33 84 -78 46 -44 100 -89
120 -98 39 -18 48 -31 16 -23 -11 3 -20 1 -20 -3 0 -13 51 -21 100 -15 178 23
235 36 235 54 0 7 18 28 40 47 l40 34 -57 -25 c-61 -26 -66 -25 -43 15 22 38
18 50 -13 50 -19 0 -33 -7 -41 -23 -15 -28 -68 -64 -103 -71 -39 -7 -158 13
-185 30 -25 16 -30 43 -12 61 8 8 7 17 -5 34 -30 44 -17 55 19 16 63 -69 137
-87 207 -51 35 18 42 31 40 72 -3 36 20 72 44 72 13 0 19 14 27 70 3 14 5 6 6
-19 1 -35 4 -42 17 -37 9 3 26 9 38 12 21 5 24 15 35 102 6 53 12 109 14 124
2 26 3 25 92 -42 50 -37 92 -67 95 -67 3 1 33 -13 68 -31 60 -30 67 -28 34 11
-14 16 -13 17 18 11 24 -5 31 -4 26 4 -4 7 -14 12 -22 12 -8 0 -32 17 -53 38
-21 20 -53 50 -72 65 -19 15 -29 26 -23 23 6 -3 26 -7 45 -10 19 -2 43 -8 54
-12 16 -5 18 -4 8 6 -26 28 -234 140 -260 140 -17 0 -16 11 2 37 l14 21 66
-23 c78 -28 78 -17 0 15 -59 24 -63 39 -12 41 21 1 25 3 12 6 -11 3 -24 8 -28
12 -4 4 14 55 41 112 102 216 179 430 232 647 12 51 24 92 25 90 5 -7 -15
-260 -29 -363 -45 -331 -61 -427 -82 -500 -13 -43 -21 -81 -19 -83 8 -9 68
136 118 287 53 162 54 164 61 120 5 -40 20 -161 46 -391 17 -148 82 -414 105
-430 13 -10 24 6 92 126 119 210 248 540 349 890 l49 169 9 -103 c14 -159 -27
-439 -103 -715 -11 -39 -18 -71 -16 -73 1 -2 17 40 35 94 20 58 35 91 40 84 5
-8 11 -1 18 21 172 553 212 751 230 1124 6 121 7 132 13 80 4 -33 7 -168 8
-300z m-954 18 c-49 -254 -150 -558 -275 -829 l-37 -80 -46 -3 -47 -2 74 148
c165 330 273 608 332 856 29 121 28 61 -1 -90z m-1774 80 c56 -92 69 -116 63
-124 -3 -5 1 -9 8 -9 13 0 55 -77 51 -92 -2 -4 2 -8 7 -8 6 0 10 -5 10 -11 0
-21 -28 10 -60 67 -16 30 -31 57 -32 61 -1 5 -10 17 -20 27 -10 11 -22 34 -29
53 -6 18 -15 33 -20 33 -5 0 -9 9 -9 20 0 28 5 25 31 -17z m3374 -262 c-12
-11 -35 33 -33 63 3 53 11 52 25 -3 8 -29 11 -56 8 -60z m-3585 44 c0 -8 6
-20 13 -27 27 -30 91 -157 83 -165 -4 -5 -22 31 -29 57 0 3 -5 10 -9 15 -5 6
-17 20 -26 32 -10 12 -27 41 -36 65 -10 24 -22 52 -28 63 -7 16 -5 16 12 -4
11 -13 20 -29 20 -36z m3600 -61 c0 -2 -9 -4 -20 -4 -11 0 -20 4 -20 9 0 5 9
7 20 4 11 -3 20 -7 20 -9z m-114 -357 c4 -48 10 -84 14 -80 4 4 15 67 24 138
25 206 36 278 40 282 14 14 44 -22 54 -64 40 -156 102 -518 102 -591 0 -1 -23
9 -51 23 -40 21 -120 78 -168 122 -3 2 12 -4 33 -12 21 -9 40 -14 43 -11 7 6
-52 36 -72 36 -8 0 -15 5 -15 11 0 5 6 7 13 3 9 -5 9 -3 -1 7 -15 16 -14 16
-92 18 l-60 1 6 28 c4 15 21 79 39 142 18 63 39 156 46 205 l14 90 12 -130 c7
-71 15 -170 19 -218z m-1900 217 c-8 -60 -20 -152 -26 -204 -16 -121 -20 -130
-73 -132 l-42 -1 38 -4 c21 -2 41 -11 43 -18 8 -20 -54 -227 -72 -241 -7 -6
-11 -14 -8 -17 3 -3 3 -14 -1 -25 -4 -14 -18 -22 -47 -27 -22 -4 -72 -18 -111
-30 -40 -13 -73 -23 -74 -22 -1 1 39 77 89 167 104 189 187 361 223 463 14 38
29 75 32 81 4 6 8 17 9 26 2 23 27 101 31 97 1 -2 -3 -53 -11 -113z m-1461
-22 c-8 -8 -25 10 -19 20 4 6 9 5 15 -3 4 -7 6 -15 4 -17z m439 -174 c-4 -24
-11 -47 -17 -53 -10 -10 -2 69 9 87 11 18 14 6 8 -34z m-627 -89 c15 -5 78
-62 139 -124 110 -112 113 -117 153 -218 51 -130 59 -166 71 -306 21 -245 91
-616 122 -646 12 -12 3 164 -18 340 -18 145 -29 509 -16 531 6 11 11 -22 16
-97 4 -63 11 -132 16 -154 l8 -40 1 35 c4 134 24 365 36 415 7 33 13 52 14 42
1 -10 5 -16 9 -13 5 3 14 50 21 106 9 66 19 108 31 122 17 22 18 16 25 -175 7
-194 7 -202 -33 -510 -23 -171 -49 -393 -58 -492 -10 -99 -18 -182 -20 -184
-2 -2 -18 11 -36 28 -40 38 -112 74 -233 116 -103 35 -249 125 -287 176 -51
68 -58 92 -63 231 l-6 133 21 -37 c11 -21 23 -38 26 -38 3 0 -6 21 -20 46 -22
39 -26 59 -26 128 0 162 20 410 36 433 12 20 12 22 0 17 -15 -6 -15 2 0 103 4
28 14 40 36 42 4 1 19 -4 35 -10z m-98 -110 c-24 -160 -38 -475 -29 -659 3
-69 5 -126 4 -128 -6 -10 -75 132 -93 192 -27 87 -57 355 -47 419 6 39 21 65
89 151 45 57 83 102 85 101 1 -1 -3 -35 -9 -76z m1789 -205 c27 -8 27 -15 4
-44 -16 -19 -23 -21 -61 -14 l-43 9 22 28 c22 27 37 32 78 21z m-1020 -436
c34 -370 41 -434 72 -643 16 -104 32 -212 35 -240 l6 -50 -43 47 c-24 25 -76
85 -117 133 l-74 87 2 75 c4 154 78 843 91 843 3 0 16 -114 28 -252z m352
-253 c6 4 10 -2 10 -12 1 -17 2 -16 16 2 15 19 16 19 10 -10 -10 -52 -37 -350
-50 -538 -12 -176 -12 -180 -20 -107 -4 41 -14 131 -22 200 -7 69 -17 202 -20
295 l-7 171 34 63 34 63 3 -66 c2 -39 7 -64 12 -61z m-2285 -282 c-38 -127
-110 -409 -150 -583 -31 -135 -36 -147 -66 -170 -18 -14 -83 -64 -143 -112
-61 -48 -112 -85 -114 -83 -14 13 94 294 158 410 89 165 324 585 326 585 2 0
-3 -21 -11 -47z m1707 -90 l66 -68 -7 -125 c-6 -120 -8 -124 -26 -45 -8 37
-82 240 -99 273 -9 17 -13 32 -8 32 4 0 37 -30 74 -67z m225 -213 c26 -29 63
-67 82 -84 l34 -31 -7 -365 c-4 -200 -11 -369 -16 -375 -4 -5 -13 -79 -19
-164 -6 -85 -13 -156 -16 -159 -14 -14 -87 264 -105 403 -22 168 -29 213 -51
325 -18 92 -23 160 -26 338 l-4 223 39 -29 c22 -16 62 -53 89 -82z m3088 -430
c8 -69 15 -193 16 -275 0 -83 4 -174 8 -203 4 -30 4 -75 -1 -100 -4 -26 -13
-90 -20 -142 -11 -86 -13 -91 -19 -55 -18 104 -52 527 -53 670 -1 133 2 171
19 224 18 59 20 62 27 36 4 -16 14 -85 23 -155z m-2656 65 c9 -6 39 -23 66
-39 28 -16 65 -40 83 -54 18 -13 39 -25 45 -26 7 -1 86 -40 177 -88 91 -47
206 -103 255 -123 50 -21 94 -39 98 -42 7 -4 -8 -21 -58 -62 -32 -25 -128
-199 -162 -291 -23 -64 -34 -189 -23 -275 4 -36 8 -47 9 -27 1 24 6 32 20 32
11 0 21 -6 24 -12 2 -7 7 -10 11 -7 3 3 0 30 -8 60 -33 127 -28 212 17 294
l16 30 -7 -35 c-4 -19 -7 -98 -6 -175 1 -126 4 -148 29 -220 15 -44 28 -86 28
-92 0 -7 5 -13 11 -14 18 -1 -136 -70 -189 -85 -27 -8 -86 -14 -130 -14 l-80
0 -17 123 c-30 209 -111 519 -169 646 -11 24 -21 52 -22 62 -1 11 -4 19 -8 19
-6 0 -33 76 -34 95 0 6 -3 13 -7 16 -7 4 -47 295 -48 337 0 12 20 3 79 -33z
m2585 -680 c38 -359 39 -362 27 -432 -7 -37 -21 -100 -33 -140 l-21 -72 -27
14 c-39 20 -73 104 -74 180 0 33 6 94 13 135 17 97 9 126 -74 265 -37 59 -78
130 -91 158 l-26 50 45 41 c54 49 185 276 223 386 6 16 11 -56 16 -210 4 -129
13 -298 22 -375z m-5150 551 c-4 -16 -40 -57 -87 -99 -44 -40 -108 -98 -141
-130 -56 -53 -61 -56 -64 -34 -6 48 18 77 155 186 76 60 139 108 141 106 2 -1
0 -15 -4 -29z m2293 -444 c1 -203 -2 -374 -6 -381 -6 -8 -19 3 -41 36 -31 46
-32 51 -26 123 3 41 12 116 20 165 8 50 19 151 26 225 12 144 19 200 24 200 1
0 3 -166 3 -368z m2604 277 c-24 -62 -81 -149 -98 -149 -6 0 -20 -3 -30 -7
-11 -4 -5 7 18 33 19 22 55 72 79 111 25 40 46 70 48 69 1 -2 -6 -27 -17 -57z
m-3887 -51 c-14 -49 -36 -93 -59 -124 -23 -30 -29 -32 -76 -30 -48 3 -53 5
-70 37 -9 19 -20 50 -24 70 l-6 35 98 15 c143 23 146 23 137 -3z m141 -95 c16
-21 29 -41 28 -44 -4 -13 215 -110 271 -119 32 -5 60 -11 62 -13 2 -1 -7 -16
-20 -32 l-23 -29 -39 16 c-59 24 -265 96 -297 104 -16 4 -32 16 -36 28 -14 36
-23 124 -16 147 l8 23 16 -21 c9 -12 29 -38 46 -60z m-1495 -20 c-10 -43 -23
-64 -45 -74 -5 -2 -9 -7 -7 -11 1 -5 -2 -8 -8 -8 -5 0 -10 -8 -10 -17 0 -14
-2 -15 -9 -5 -6 11 -10 10 -16 -5 -13 -30 -15 -53 -5 -53 6 0 10 6 10 13 0 6
6 3 12 -8 6 -11 16 -23 22 -27 6 -4 0 -8 -14 -8 l-25 -1 25 -10 c49 -20 188 7
297 58 40 18 75 33 78 33 3 0 5 -25 5 -55 0 -44 -4 -57 -17 -61 -10 -4 -55
-21 -99 -39 -116 -47 -237 -164 -259 -250 -4 -16 -10 -84 -14 -150 -6 -109 -9
-124 -36 -168 -17 -26 -40 -66 -52 -90 l-22 -42 -1 35 c-1 58 -17 215 -39 385
-25 193 -27 311 -5 363 8 20 33 58 55 84 21 26 43 56 47 66 4 11 36 46 72 78
60 54 65 56 68 35 2 -13 -1 -44 -8 -68z m1058 54 c15 -41 15 -48 1 -84 -8 -22
-12 -24 -19 -13 -7 10 -10 11 -10 3 0 -8 -15 -13 -40 -13 -33 0 -40 3 -40 19
0 20 74 121 88 121 4 0 13 -15 20 -33z m-330 -59 c-17 -34 -31 -69 -31 -78 2
-27 -115 -83 -183 -89 -8 0 -12 -5 -9 -11 3 -6 -1 -7 -9 -4 -17 7 -29 56 -24
99 3 25 12 33 73 58 39 17 99 43 135 58 36 16 68 29 73 29 4 0 -7 -28 -25 -62z
m672 -60 c0 -5 -7 -8 -15 -8 -17 0 -18 2 -9 25 5 13 8 14 15 3 5 -7 9 -16 9
-20z m1391 -390 c12 -120 20 -220 17 -224 -3 -3 -24 4 -47 16 l-41 20 0 93 c0
50 3 184 7 297 l7 205 17 -95 c9 -52 27 -193 40 -312z m2259 352 c-42 -34
-135 -87 -210 -120 -57 -25 -74 -29 -86 -19 -12 10 -13 9 -8 -4 4 -12 -3 -18
-33 -23 -21 -5 -44 -7 -51 -5 -8 1 -20 -3 -28 -10 -11 -9 -18 -9 -26 -1 -9 9
-8 12 5 12 14 0 17 10 17 49 0 46 2 49 23 44 16 -3 18 -2 9 5 -16 11 96 42
155 42 21 0 56 4 78 9 22 5 58 12 80 14 22 3 51 10 65 16 36 14 38 13 10 -9z
m143 -23 c9 -23 39 -78 67 -122 92 -151 94 -154 94 -232 1 -80 -5 -94 -32 -70
-21 19 -42 22 -42 7 0 -5 6 -10 14 -10 8 0 22 -7 31 -16 18 -18 15 -33 -21
-109 l-24 -50 0 41 c0 34 -4 43 -21 47 -16 4 -25 -2 -37 -24 -17 -28 -32 -38
-32 -20 0 5 6 11 13 14 6 2 9 8 5 12 -9 10 -38 -19 -38 -39 0 -9 5 -16 10 -16
6 0 10 -16 10 -35 0 -28 -4 -35 -20 -35 -12 0 -20 7 -20 16 0 12 -6 15 -21 11
-18 -5 -20 -2 -15 21 11 44 28 82 37 82 5 0 9 14 9 30 0 17 4 38 8 48 31 62
66 193 66 243 -1 67 -26 111 -60 103 -12 -3 -24 -2 -27 4 -7 11 13 142 22 142
3 0 14 -19 24 -43z m-2183 -242 c30 -108 52 -209 74 -349 l14 -88 -51 6 c-28
4 -54 9 -58 11 -3 3 -9 44 -13 92 -4 49 -11 122 -16 163 -5 41 -12 125 -15
185 -3 61 -10 139 -15 175 -5 36 -9 70 -9 75 1 14 55 -149 89 -270z m2094 167
c-9 -40 -20 -72 -25 -72 -5 0 -9 -9 -9 -20 0 -11 -3 -20 -7 -20 -13 0 -93
-135 -93 -157 0 -7 -3 -13 -8 -13 -4 0 -12 -15 -18 -32 -26 -74 -40 -107 -81
-194 -24 -50 -43 -96 -43 -101 0 -6 -9 -22 -21 -37 -11 -14 -17 -26 -14 -26 4
0 -3 -9 -16 -20 -13 -10 -21 -19 -18 -20 4 0 -66 -73 -154 -162 -88 -90 -221
-230 -296 -312 -110 -119 -150 -156 -211 -192 -41 -24 -79 -44 -85 -44 -5 0
-23 -16 -38 -35 -15 -19 -32 -35 -37 -35 -8 0 -110 198 -110 214 0 20 -42 94
-56 100 -8 3 -32 6 -52 6 -20 0 -44 5 -52 10 -12 8 -10 10 8 10 13 0 20 4 17
10 -3 5 -23 9 -43 9 -45 -2 -109 22 -77 28 11 2 27 7 35 10 8 3 29 7 45 9 17
1 44 4 60 7 17 2 22 2 12 0 -14 -3 -17 -11 -13 -26 3 -12 6 -28 6 -34 0 -7 11
-13 25 -13 15 0 23 5 20 13 -2 6 2 21 11 32 12 16 16 17 23 6 10 -15 61 -8 61
9 0 6 9 10 19 10 11 0 26 6 33 13 7 8 32 17 56 20 58 10 119 35 126 53 4 11 1
14 -13 9 -12 -3 -21 0 -25 10 -3 8 -12 15 -20 15 -8 0 -17 6 -19 13 -4 9 -8 9
-15 -2 -5 -7 -15 -12 -22 -9 -7 2 13 19 43 39 44 28 64 34 106 34 28 0 51 4
51 9 0 5 21 6 48 3 33 -5 53 -2 66 8 10 8 23 12 27 9 5 -3 9 -1 9 4 0 5 10 13
23 17 14 4 17 8 9 12 -7 3 -19 -1 -27 -7 -13 -11 -15 -3 -15 54 0 36 -3 65 -8
63 -12 -4 -15 7 -8 28 4 11 23 32 44 48 47 34 148 126 266 240 50 49 107 103
126 121 74 68 181 192 173 199 -2 3 5 10 16 17 12 6 21 7 21 3 0 -4 4 -3 8 2
4 6 36 31 73 57 36 25 71 53 78 62 22 26 22 14 5 -62z m-3062 6 c27 -12 46
-23 44 -25 -1 -2 -40 -17 -84 -33 l-81 -30 21 41 c28 54 18 59 -16 9 l-27 -41
-31 22 -30 22 38 33 c34 30 44 33 79 28 22 -3 61 -14 87 -26z m2548 -19 c0
-15 -4 -19 -16 -15 -9 3 -23 6 -32 6 -12 1 -10 5 8 15 34 19 40 19 40 -6z
m-90 -39 c-8 -6 -24 -10 -35 -9 -15 0 -13 3 10 13 32 14 49 11 25 -4z m-2352
0 c8 0 41 -26 75 -59 34 -32 87 -73 117 -92 30 -18 93 -62 140 -99 47 -36 100
-75 118 -85 l33 -20 -7 -113 c-4 -62 -10 -126 -13 -142 l-6 -29 -45 40 c-25
22 -79 65 -120 97 -41 31 -131 113 -200 183 -69 70 -162 157 -208 193 l-83 65
73 35 c40 19 82 33 93 31 11 -3 26 -5 33 -5z m2447 -40 c3 -5 -1 -10 -9 -10
-8 0 -18 5 -21 10 -3 6 1 10 9 10 8 0 18 -4 21 -10z m-95 -14 c0 -2 -9 -6 -20
-9 -11 -3 -18 -1 -14 4 5 9 34 13 34 5z m-70 -10 c0 -9 -40 -13 -46 -5 -3 5 6
9 20 9 14 0 26 -2 26 -4z m141 -53 c8 -14 22 -17 65 -15 30 2 54 1 54 -3 0 -4
-21 -26 -47 -48 -27 -23 -97 -90 -158 -149 -87 -85 -440 -365 -533 -423 -9 -5
-21 -14 -28 -20 -6 -5 -22 -17 -34 -25 -12 -8 -29 -22 -38 -30 -9 -8 -18 -15
-21 -14 -3 1 -19 -9 -36 -22 -51 -38 -220 -66 -428 -71 -123 -3 -183 0 -192 7
-16 14 -22 55 -29 211 l-6 115 43 2 c110 6 246 51 442 147 160 78 271 127 333
148 17 5 32 14 32 18 0 4 17 10 37 14 28 5 33 9 22 17 -11 8 -10 9 4 4 11 -4
39 8 75 31 31 20 63 36 70 35 6 -2 12 3 12 11 0 9 11 12 38 10 29 -2 33 -1 17
6 -19 9 -18 10 5 12 14 1 38 1 54 0 17 -2 26 1 22 7 -4 6 16 15 46 21 131 25
165 26 179 4z m1108 -195 c6 -62 11 -205 10 -318 0 -194 -1 -204 -17 -180 -9
14 -42 51 -74 83 -46 46 -56 62 -49 76 13 23 89 366 97 437 10 78 20 48 33
-98z m-4829 128 c0 -2 -8 -10 -17 -17 -16 -13 -17 -12 -4 4 13 16 21 21 21 13z
m-660 -249 c0 -14 -19 -37 -31 -37 -4 0 -2 11 4 25 13 27 27 33 27 12z m2620
-192 c0 -79 -4 -146 -8 -149 -5 -3 -16 10 -25 29 -10 22 -24 35 -36 35 -24 0
-47 26 -29 33 8 3 6 6 -6 6 -20 1 -20 -3 5 163 l12 87 44 -30 43 -30 0 -144z
m2454 80 c-4 -8 -8 -15 -10 -15 -2 0 -4 7 -4 15 0 8 4 15 10 15 5 0 7 -7 4
-15z m-3009 -89 c22 -18 66 -47 98 -66 55 -33 57 -36 40 -50 -20 -16 -38 -56
-49 -110 -8 -44 -25 -70 -44 -70 -24 0 -113 46 -141 73 -14 14 -43 46 -64 72
-31 37 -36 48 -25 58 10 9 11 9 6 0 -5 -9 0 -13 13 -13 14 0 21 6 21 20 0 13
7 20 20 20 11 0 20 7 20 15 0 8 4 15 8 15 5 0 15 18 22 40 14 43 15 43 75 -4z
m859 -65 c3 -25 8 -79 12 -120 6 -70 5 -74 -12 -66 -11 5 -43 11 -71 13 l-53
4 0 41 c0 23 -3 86 -7 140 l-6 98 66 -32 c64 -32 66 -33 71 -78z m-11 85 c4
-10 0 -12 -14 -9 -22 6 -26 23 -5 23 8 0 16 -6 19 -14z m-3358 -149 c-19 -19
-35 -44 -35 -55 0 -11 -7 -26 -16 -33 -12 -10 -15 -24 -11 -59 3 -25 8 -52 12
-62 5 -12 -1 -18 -24 -23 -17 -4 -34 -11 -37 -17 -5 -8 3 -9 27 -3 19 4 52 8
74 10 45 3 127 25 136 37 9 13 222 86 373 128 78 22 166 48 197 59 85 30 488
108 615 119 62 6 176 10 255 11 79 1 185 4 235 7 80 6 106 3 226 -26 124 -29
141 -36 186 -73 27 -23 54 -49 60 -58 9 -14 5 -14 -41 -2 -110 30 -271 52
-489 69 -197 15 -233 15 -270 3 -53 -17 -88 -49 -88 -81 0 -27 85 -124 95
-108 4 7 14 6 28 -2 22 -11 22 -11 -6 -21 -15 -5 -27 -13 -27 -18 0 -5 -7 -9
-15 -9 -8 0 -15 5 -15 10 0 6 -7 10 -15 10 -8 0 -15 -6 -15 -14 0 -8 -9 -18
-20 -21 -34 -11 -24 -35 15 -35 28 0 35 -4 35 -20 0 -16 7 -20 35 -20 28 0 35
-4 35 -20 0 -13 -7 -20 -19 -20 -11 0 -23 -4 -26 -10 -6 -10 20 -15 68 -11 19
2 27 -2 27 -13 0 -9 1 -16 3 -16 1 0 17 -4 35 -9 20 -6 30 -6 27 0 -9 13 7 11
27 -5 10 -7 15 -16 11 -19 -3 -4 8 -10 25 -13 18 -4 32 -10 32 -15 0 -5 9 -9
20 -9 11 0 20 -5 20 -11 0 -6 9 -9 20 -6 11 3 18 1 15 -3 -8 -13 33 -32 48
-24 6 4 9 3 4 -1 -10 -11 42 -45 59 -38 9 3 14 -2 14 -12 0 -9 4 -13 10 -10 5
3 15 -3 22 -15 7 -11 18 -20 24 -20 6 0 22 -10 36 -22 26 -24 77 -63 183 -143
95 -72 149 -113 168 -130 10 -9 23 -13 29 -9 6 4 8 3 5 -3 -4 -6 1 -17 10 -24
14 -12 16 -12 8 1 -8 13 -6 13 8 1 9 -7 14 -18 10 -24 -3 -5 -1 -7 5 -3 6 3
17 -2 24 -12 15 -22 112 -85 148 -97 43 -15 50 -14 50 5 0 30 18 33 49 8 32
-25 36 -37 47 -115 l7 -53 -52 0 c-29 0 -93 4 -144 10 -51 5 -126 11 -168 14
-73 3 -79 5 -155 58 -64 45 -243 156 -339 210 -11 7 -56 32 -100 57 -44 25
-86 51 -93 58 -23 22 -72 44 -83 38 -5 -4 -8 -1 -7 6 2 7 -6 15 -17 17 -11 2
-24 11 -28 18 -5 8 -12 12 -17 9 -5 -3 -15 3 -22 13 -15 20 -62 52 -78 52 -5
0 -31 15 -57 34 -27 18 -93 55 -148 81 -55 26 -140 67 -190 91 -49 23 -126 56
-170 73 -44 16 -115 45 -157 65 -79 37 -118 47 -85 22 26 -20 0 -26 -40 -9
-43 18 -134 17 -159 -2 -10 -8 -28 -15 -39 -15 -16 0 -88 -32 -103 -45 -2 -1
-5 -14 -8 -29 -4 -24 -1 -26 28 -27 18 0 27 -3 19 -6 -15 -6 31 -27 224 -100
145 -55 213 -73 283 -73 72 0 57 -16 -23 -25 -36 -3 -65 -10 -65 -15 0 -21
-210 -41 -254 -24 -9 3 -16 14 -16 24 0 21 -20 31 -47 24 -10 -3 -34 6 -54 19
-19 13 -41 21 -48 19 -15 -5 -57 15 -85 41 -24 21 -19 21 25 3 33 -13 129 -29
129 -22 0 8 -348 126 -369 125 -10 0 -12 -2 -3 -6 6 -2 9 -9 6 -15 -3 -5 0 -8
7 -7 8 1 30 -5 49 -14 l35 -17 -62 3 c-47 2 -63 0 -63 -10 0 -7 3 -13 8 -13 4
0 8 -42 9 -93 3 -77 -1 -103 -22 -162 -14 -38 -27 -76 -28 -83 -2 -7 -9 -18
-15 -24 -7 -7 -12 -17 -12 -23 0 -14 -169 -180 -176 -173 -3 3 11 55 30 114
115 361 116 364 116 477 l0 106 32 -10 c40 -11 38 -11 38 -1 0 5 -22 19 -50
32 -27 13 -61 36 -76 51 -23 24 -26 34 -21 69 5 40 89 222 144 314 l28 47 3
-49 c3 -45 0 -52 -33 -85z m2965 44 c38 -21 78 -72 86 -109 4 -19 14 -36 23
-39 9 -3 25 -9 36 -14 11 -4 68 -10 128 -13 124 -4 163 -22 194 -89 13 -31 18
-36 23 -21 5 13 9 14 14 5 6 -9 37 -11 130 -5 84 4 129 3 143 -5 15 -7 31 -41
54 -108 18 -54 49 -129 70 -168 43 -78 49 -79 18 -2 -48 119 -66 177 -54 177
3 0 19 -7 35 -15 15 -8 53 -16 84 -19 30 -2 60 -7 67 -11 13 -9 58 -108 79
-172 7 -24 17 -43 21 -43 9 0 49 -67 49 -82 0 -6 7 -19 15 -28 23 -26 21 -154
-5 -280 -17 -83 -105 -446 -136 -557 -4 -13 -10 -21 -14 -18 -4 3 -11 -7 -14
-23 -4 -15 -9 -35 -12 -44 -3 -12 0 -18 10 -18 27 0 170 -50 221 -78 54 -30
62 -46 64 -128 2 -78 -10 -144 -25 -144 -7 0 -15 -10 -17 -22 -3 -18 -5 -17
-6 7 l-2 30 -14 -34 c-8 -18 -15 -43 -16 -55 0 -18 -3 -16 -14 9 l-14 30 -2
-45 c-1 -25 -1 -84 1 -131 1 -47 -1 -110 -5 -141 -7 -54 -7 -55 -53 -71 -26
-9 -65 -19 -88 -22 l-41 -6 4 98 c2 54 0 118 -5 143 -9 43 -10 40 -12 -40 0
-47 -1 -113 -2 -147 l0 -61 -101 -9 c-56 -4 -119 -6 -140 -4 -37 3 -38 5 -32
30 9 32 8 83 -2 181 l-7 75 -7 -70 c-4 -38 -7 -103 -8 -142 0 -40 -4 -73 -8
-73 -5 0 -42 6 -83 12 -41 6 -120 11 -175 12 -55 1 -128 8 -162 16 -68 15 -73
23 -64 99 2 24 6 30 13 20 7 -11 8 -9 5 6 -2 11 -9 19 -15 17 -7 -1 -12 7 -12
17 0 11 -5 23 -12 27 -8 5 -9 -11 -5 -64 4 -38 10 -78 14 -88 5 -15 2 -16 -23
-10 -16 4 -54 19 -84 32 l-56 25 -17 97 c-19 112 -31 305 -17 297 5 -3 7 9 4
27 -3 18 0 40 6 48 9 13 12 13 21 -2 5 -10 15 -18 20 -18 6 0 7 6 3 13 -6 9
-5 9 7 0 8 -6 22 -26 33 -43 18 -31 18 -32 0 -30 -11 1 -28 2 -38 1 -18 -1
-18 -2 -1 -21 37 -41 187 -83 380 -106 151 -18 208 -18 298 0 40 8 92 18 116
21 27 5 39 10 31 15 -12 8 19 18 73 25 38 4 111 26 152 45 22 10 65 29 96 43
43 19 59 32 73 61 9 20 16 49 14 64 l-3 27 -16 -29 -17 -30 -13 22 c-8 12 -16
22 -20 22 -9 0 2 -59 12 -66 18 -11 8 -24 -38 -48 -59 -29 -190 -72 -198 -64
-3 3 -3 51 1 107 5 70 11 101 19 101 17 0 14 33 -3 44 -26 16 -34 -12 -43
-135 -5 -67 -12 -126 -17 -131 -5 -5 -36 -13 -68 -18 -32 -5 -86 -19 -119 -31
-50 -19 -80 -22 -175 -22 -117 0 -335 25 -387 44 -42 15 -185 212 -245 339
-95 200 -165 462 -188 700 -26 266 -104 531 -192 646 -24 31 -52 70 -62 86
l-19 31 59 -8 c68 -8 145 -43 191 -87 39 -38 94 -114 87 -121 -3 -3 6 -28 20
-55 87 -172 116 -311 131 -622 3 -64 14 -131 35 -205 17 -60 33 -126 36 -145
21 -151 23 -158 19 -65 -3 50 -14 121 -25 160 -34 119 -42 181 -81 629 -7 78
-18 140 -33 180 -13 34 -38 115 -55 181 -37 137 -54 182 -47 123 5 -41 1 -45
-23 -24 -28 24 -115 66 -151 72 -50 9 -64 23 -46 43 8 9 25 43 37 76 36 98 50
111 157 145 57 18 128 14 172 -9z m1530 -1 c0 -5 -4 -10 -10 -10 -5 0 -10 5
-10 10 0 6 5 10 10 10 6 0 10 -4 10 -10z m-50 -55 c0 -8 -7 -15 -16 -15 -8 0
-12 -4 -9 -10 3 -6 -4 -10 -17 -10 -22 0 -22 1 7 25 36 29 35 29 35 10z m-160
-155 c0 -5 -4 -10 -10 -10 -5 0 -10 5 -10 10 0 6 5 10 10 10 6 0 10 -4 10 -10z
m-2495 -40 c14 -6 40 -10 56 -10 28 0 29 -1 14 -16 -10 -11 -25 -14 -43 -10
-15 3 -43 8 -62 11 -19 4 -48 13 -65 20 -16 7 -39 16 -50 19 -11 3 12 3 52 1
39 -3 84 -10 98 -15z m2295 -30 c0 -5 -7 -10 -16 -10 -8 0 -12 5 -9 10 3 6 10
10 16 10 5 0 9 -4 9 -10z m-253 -36 c-3 -3 -12 -4 -19 -1 -8 3 -5 6 6 6 11 1
17 -2 13 -5z m-1767 -95 c0 -6 -4 -7 -10 -4 -5 3 -10 11 -10 16 0 6 5 7 10 4
6 -3 10 -11 10 -16z m-450 -9 c0 -5 -8 -10 -17 -10 -15 0 -16 2 -3 10 19 12
20 12 20 0z m-1375 -150 c3 -5 1 -10 -4 -10 -6 0 -11 5 -11 10 0 6 2 10 4 10
3 0 8 -4 11 -10z m1055 -90 c0 -5 -7 -7 -15 -4 -8 4 -15 8 -15 10 0 2 7 4 15
4 8 0 15 -4 15 -10z m-1066 -133 c-5 -15 -72 -47 -95 -47 -12 0 -12 2 0 9 11
7 11 9 0 13 -11 4 -11 7 1 19 17 19 101 24 94 6z m4010 -222 c-4 -8 -12 -15
-20 -15 -10 0 -13 -10 -9 -39 3 -26 0 -42 -9 -50 -11 -9 -15 -6 -18 13 -6 32
26 106 46 106 10 0 13 -6 10 -15z m-71 -200 c4 -8 2 -17 -3 -20 -6 -4 -10 3
-10 14 0 25 6 27 13 6z m787 -49 c0 -11 -19 -15 -25 -6 -3 5 1 10 9 10 9 0 16
-2 16 -4z m-94 -45 c-6 -9 -46 -22 -46 -15 0 3 10 9 23 14 29 11 29 11 23 1z
m-120 -38 c-6 -6 -36 9 -36 18 0 5 9 4 20 -3 10 -7 18 -14 16 -15z m29 -13
c-21 -10 -43 -16 -49 -13 -5 3 6 12 25 18 52 19 69 16 24 -5z m-2402 3 c6 -10
-50 -9 -60 0 -3 4 8 7 25 7 17 0 33 -3 35 -7z m228 -14 c14 -6 63 -8 108 -6
45 2 84 0 87 -5 3 -4 6 -26 7 -48 1 -22 4 -40 8 -40 4 0 9 -9 12 -20 6 -25
-10 -26 -58 -3 -25 12 -35 23 -35 40 0 14 -6 23 -15 23 -18 0 -20 -26 -2 -34
17 -8 -69 4 -120 16 -24 6 -43 14 -43 17 0 4 -13 6 -28 3 -38 -5 -114 16 -106
30 4 7 -1 8 -16 3 -14 -4 -20 -3 -16 3 3 5 23 13 43 17 36 8 37 8 13 16 -15 5
8 6 55 3 44 -3 92 -10 106 -15z m2049 11 c0 -5 -5 -10 -11 -10 -5 0 -7 5 -4
10 3 6 8 10 11 10 2 0 4 -4 4 -10z m-15 -31 c7 12 55 15 55 3 0 -12 -80 -43
-92 -36 -7 4 -8 2 -4 -4 4 -7 1 -12 -8 -12 -8 0 -16 -5 -18 -12 -2 -6 -19 -11
-36 -11 -18 0 -28 -3 -22 -7 18 -11 -143 -80 -187 -80 -12 0 -25 -4 -28 -10
-7 -11 -90 -35 -150 -44 l-40 -6 44 25 c23 14 49 25 57 25 8 0 13 5 12 11 -3
10 157 84 242 112 19 7 60 24 90 39 48 24 56 25 67 12 7 -10 13 -12 18 -5z
m-4902 -274 c-3 -9 -8 -14 -10 -11 -3 3 -2 9 2 15 9 16 15 13 8 -4z m-16 -54
c-1 -16 -5 -27 -9 -25 -9 6 -15 -19 -24 -89 -3 -31 -10 -59 -14 -62 -9 -5 -2
74 10 122 10 39 4 46 -20 26 -13 -12 -17 -26 -14 -52 2 -20 2 -30 -2 -23 -11
24 -24 12 -24 -23 0 -35 22 -50 33 -22 3 6 6 8 6 2 1 -19 -15 -34 -43 -39 -25
-5 -27 -3 -21 17 4 12 9 37 12 55 3 19 12 36 19 39 8 3 11 9 8 14 -7 12 56 89
72 89 8 0 12 -11 11 -29z m-50 -233 c-3 -7 -5 -2 -5 12 0 14 2 19 5 13 2 -7 2
-19 0 -25z m-24 -115 c-7 -3 -13 -12 -14 -21 0 -11 -2 -13 -6 -4 -6 15 17 46
26 36 3 -4 0 -9 -6 -11z m-110 -43 c-3 -12 -8 -19 -11 -16 -5 6 5 36 12 36 2
0 2 -9 -1 -20z m5504 -77 c13 -816 13 -830 -23 -453 -20 206 -20 285 1 317 11
16 13 42 8 107 -4 52 -2 86 3 86 6 0 10 -26 11 -57z m158 -233 c18 -40 18 -45
1 -178 -37 -284 -41 -290 -41 -57 0 116 -4 230 -9 254 -9 41 -8 43 11 33 11
-6 28 -29 38 -52z m96 -172 c28 -50 144 -274 256 -497 407 -806 598 -1172 696
-1331 22 -36 65 -110 95 -165 66 -121 81 -143 147 -220 29 -33 60 -75 69 -93
38 -74 401 -456 743 -782 78 -74 142 -138 143 -142 0 -13 -74 5 -170 40 -290
105 -468 148 -660 159 -130 7 -560 -12 -712 -31 -62 -8 -198 -19 -303 -25
-104 -6 -289 -15 -410 -22 -121 -6 -267 -17 -325 -24 l-105 -13 -27 32 c-15
17 -28 36 -28 42 0 7 -12 15 -26 18 -33 9 -212 -3 -289 -19 -61 -12 -391 -9
-399 4 -24 38 -26 635 -3 846 9 83 19 191 22 240 3 50 13 130 22 179 l16 88
56 35 c55 33 142 85 191 114 109 63 404 350 441 429 24 50 82 271 104 395 8
44 26 143 40 220 26 148 50 285 60 349 4 21 8 36 11 34 9 -9 44 -532 44 -661
0 -152 -15 -260 -60 -447 -17 -69 -44 -186 -61 -260 -16 -74 -41 -182 -55
-239 -13 -57 -23 -105 -21 -108 3 -2 25 79 50 179 25 101 53 201 61 223 l15
40 -4 -55 c-2 -30 4 -5 15 55 45 255 73 391 83 410 6 11 28 85 49 165 22 86
38 133 39 115 1 -16 5 4 10 45 5 41 13 85 19 98 5 13 10 40 10 61 0 21 18 146
39 277 22 131 42 260 46 287 3 26 8 47 10 47 2 0 27 -41 56 -92z m-6382 -1896
c10 -19 -1 -98 -15 -112 -5 -5 -22 -10 -39 -12 -20 -2 -33 -11 -40 -25 -5 -13
-15 -23 -21 -23 -6 0 -32 -11 -57 -24 l-47 -23 7 26 c3 14 10 34 14 43 5 9 9
24 9 33 0 9 9 29 19 44 11 15 23 39 26 54 9 33 40 36 49 5 3 -13 3 -41 0 -63
l-5 -40 16 34 c8 18 15 38 15 44 0 13 40 57 51 57 5 0 13 -8 18 -18z m2733
-2562 c-35 -22 -165 -41 -147 -22 14 15 104 40 145 41 l35 1 -33 -20z m-72
-44 c0 -6 -145 -115 -225 -169 -59 -40 -199 -145 -255 -190 -43 -35 -124 -87
-297 -191 -220 -131 -439 -285 -628 -439 -82 -67 -270 -252 -380 -374 -21 -23
-43 -39 -48 -36 -6 3 -7 2 -4 -4 8 -12 -271 -289 -281 -279 -3 4 -2 10 3 14 6
4 10 16 10 27 0 13 6 20 17 19 10 -1 20 7 23 17 4 11 11 19 16 19 6 0 8 4 5 8
-7 12 41 112 54 112 6 0 14 10 19 23 5 13 21 37 36 55 22 26 32 31 53 25 27
-6 27 -6 8 16 -19 21 -19 21 3 21 12 0 41 20 67 47 38 38 44 50 36 63 -8 14
-4 22 20 44 16 14 40 26 52 26 17 1 15 4 -14 20 -22 12 -28 19 -17 20 9 0 17
7 17 16 0 14 23 62 43 89 49 67 46 65 105 66 51 1 53 2 21 8 -35 7 -94 41 -71
41 7 0 12 14 12 33 0 74 4 77 94 77 82 0 124 11 91 24 -9 3 -55 9 -101 12 -46
4 -84 11 -84 16 0 5 -9 6 -21 3 -18 -6 -19 -5 -10 14 6 11 21 26 32 32 12 6
57 37 100 68 l78 58 183 7 c219 8 282 19 168 30 -41 4 -123 6 -183 4 -59 -2
-107 -1 -107 2 0 3 34 26 75 52 l75 47 79 -6 c53 -4 80 -2 85 6 5 8 -15 11
-71 11 -68 0 -75 2 -58 14 13 8 67 16 145 20 69 4 143 10 165 14 22 4 101 7
175 6 95 0 120 2 85 7 -54 8 -423 12 -446 5 -8 -2 -27 -7 -44 -11 l-30 -6 25
18 c25 17 172 80 304 129 62 23 73 25 107 14 28 -10 62 -10 136 -3 97 10 98
10 33 13 -53 2 -59 4 -35 10 29 7 29 8 -10 10 -22 1 -51 1 -65 0 -39 -3 -19 9
92 57 174 75 208 85 313 93 121 8 225 11 225 6z m-2130 -1691 c0 -2 -6 -8 -13
-14 -10 -8 -14 -7 -14 2 0 8 6 14 14 14 7 0 13 -1 13 -2z m10 -38 c0 -2 -10
-12 -22 -23 l-23 -19 19 23 c18 21 26 27 26 19z m-680 -97 c0 -5 -4 -10 -10
-10 -5 0 -10 5 -10 10 0 6 5 10 10 10 6 0 10 -4 10 -10z m389 -172 c-46 -43
-158 -141 -189 -167 -14 -11 -36 -31 -50 -45 -25 -24 -204 -168 -271 -218 -33
-24 -36 -25 -32 -8 3 11 12 20 19 20 9 0 14 11 14 30 0 17 3 29 8 29 32 -5 57
9 108 61 32 33 65 60 73 60 7 0 11 6 8 13 -3 8 4 14 20 15 31 2 66 29 87 65
18 32 21 67 6 67 -5 0 -10 20 -10 45 l0 46 88 -6 c66 -5 93 -3 112 8 42 25 46
19 9 -15z m-719 -68 c-6 -11 -16 -20 -22 -20 -6 0 -8 -3 -5 -7 4 -4 -7 -13
-24 -20 -17 -7 -28 -17 -24 -23 3 -5 2 -10 -3 -10 -16 0 -24 33 -10 42 69 42
93 56 96 57 1 1 -2 -8 -8 -19z m-140 -88 c0 -4 -10 -9 -22 -9 -18 -2 -20 0 -8
7 18 12 30 13 30 2z m-810 -472 c0 -5 -4 -10 -10 -10 -5 0 -20 -11 -34 -25
-22 -21 -66 -35 -66 -20 0 6 92 65 103 65 4 0 7 -4 7 -10z m780 -64 c0 -2 -7
-6 -15 -10 -8 -3 -15 -1 -15 4 0 6 7 10 15 10 8 0 15 -2 15 -4z m-60 -51 c-13
-14 -26 -22 -29 -19 -3 3 5 14 18 25 33 27 39 24 11 -6z m-896 0 c-4 -8 -8
-15 -10 -15 -2 0 -4 7 -4 15 0 8 4 15 10 15 5 0 7 -7 4 -15z m-60 -30 c-4 -8
-11 -15 -16 -15 -6 0 -5 6 2 15 7 8 14 15 16 15 2 0 1 -7 -2 -15z m-54 -39 c0
-2 -8 -10 -17 -17 -16 -13 -17 -12 -4 4 13 16 21 21 21 13z m804 -96 c-22 -22
-42 -30 -86 -35 -32 -4 -58 -3 -58 1 1 23 22 36 81 46 35 6 68 15 73 19 5 5
12 6 15 4 3 -3 -8 -19 -25 -35z m-284 -85 c-14 -8 -34 -14 -45 -14 -15 0 -13
3 10 14 40 18 67 18 35 0z m-75 -24 c-6 -11 -96 -34 -103 -27 -8 9 60 35 75
29 7 -3 13 0 13 7 0 6 5 8 10 5 6 -4 8 -10 5 -14z m-490 -11 c-4 -11 -2 -20 4
-20 6 0 11 -9 11 -20 0 -11 6 -20 14 -20 21 0 27 -28 8 -40 -13 -8 -10 -9 13
-4 17 3 36 7 43 10 6 2 12 0 12 -4 0 -4 -17 -12 -37 -19 -33 -10 -40 -10 -51
5 -7 9 -16 15 -20 12 -4 -3 -8 23 -10 58 -2 41 1 62 8 62 7 0 9 -8 5 -20z
m373 -25 c-9 -9 -221 -65 -226 -60 -7 7 46 25 101 36 27 5 56 13 65 19 18 10
69 14 60 5z"/>
<path d="M10182 19117 c-17 -51 -32 -101 -32 -112 1 -25 51 91 55 125 2 14 4
25 5 25 1 0 4 12 6 28 3 15 3 27 2 27 -2 0 -18 -42 -36 -93z"/>
<path d="M10641 18665 c-19 -21 -20 -25 -6 -25 9 0 19 9 22 19 3 11 12 22 22
24 12 4 13 5 1 6 -8 0 -26 -11 -39 -24z"/>
<path d="M10052 18135 c-1 -27 -5 -61 -8 -75 -5 -21 -4 -22 6 -7 6 9 9 43 7
75 l-3 57 -2 -50z"/>
<path d="M9625 17400 c-29 -30 -30 -45 -4 -35 13 5 42 55 36 62 -2 1 -16 -11
-32 -27z"/>
<path d="M7298 19086 c31 -47 58 -83 60 -81 5 5 -83 139 -102 154 -8 7 11 -26
42 -73z"/>
<path d="M7110 19116 c-5 -15 -10 -35 -9 -44 0 -9 7 1 15 22 8 22 12 41 9 44
-2 3 -9 -7 -15 -22z"/>
<path d="M7150 19086 c-5 -15 -10 -37 -9 -49 1 -14 6 -5 15 22 15 49 11 70 -6
27z"/>
<path d="M7245 19052 c27 -29 51 -52 53 -52 11 0 -44 63 -71 81 -25 17 -21 11
18 -29z"/>
<path d="M7297 18871 c-4 -18 -7 -45 -6 -60 1 -17 4 -11 10 19 5 25 8 52 6 60
-2 8 -6 0 -10 -19z"/>
<path d="M7160 18818 c0 -19 90 -158 116 -178 18 -15 18 -14 1 10 -9 14 -39
61 -67 105 -27 43 -50 72 -50 63z"/>
<path d="M7295 18685 c4 -11 10 -33 13 -49 4 -22 2 -27 -9 -21 -7 5 -4 -5 8
-21 11 -16 23 -36 26 -44 4 -12 6 -12 6 2 2 27 45 0 75 -48 15 -23 33 -47 41
-54 16 -14 -29 76 -51 101 -8 8 -14 18 -14 22 0 3 -16 22 -35 41 -19 20 -35
39 -35 43 0 4 -8 17 -17 28 l-16 20 8 -20z"/>
<path d="M7140 18587 c26 -45 137 -169 159 -179 35 -15 43 -7 14 15 -17 12
-59 54 -93 92 -99 111 -106 117 -80 72z"/>
<path d="M7380 18455 c14 -15 34 -32 45 -37 16 -9 16 -6 -5 17 -14 15 -34 32
-45 37 -16 9 -16 6 5 -17z"/>
<path d="M7503 18453 c7 -16 23 -47 35 -70 27 -51 28 -61 5 -41 -21 18 -63 30
-63 18 0 -5 -14 -4 -32 1 -60 17 -39 1 27 -21 49 -16 72 -30 92 -56 14 -19 27
-33 29 -31 7 6 -44 136 -71 182 -30 51 -40 59 -22 18z"/>
<path d="M8431 16684 c0 -11 3 -14 6 -6 3 7 2 16 -1 19 -3 4 -6 -2 -5 -13z"/>
<path d="M10135 16430 c-3 -5 1 -10 9 -10 9 0 16 5 16 10 0 6 -4 10 -9 10 -6
0 -13 -4 -16 -10z"/>
<path d="M9851 16154 c0 -11 3 -14 6 -6 3 7 2 16 -1 19 -3 4 -6 -2 -5 -13z"/>
<path d="M9910 16059 c0 -5 5 -7 10 -4 6 3 10 8 10 11 0 2 -4 4 -10 4 -5 0
-10 -5 -10 -11z"/>
<path d="M9817 16022 c-15 -2 -25 -8 -22 -13 8 -12 42 -11 50 2 9 14 5 15 -28
11z"/>
<path d="M9756 15982 c-2 -4 6 -9 20 -10 13 -1 24 3 24 8 0 12 -37 14 -44 2z"/>
<path d="M9482 15732 c-69 -85 -110 -148 -155 -237 -62 -125 -68 -165 -9 -70
27 44 77 125 111 180 34 55 77 124 96 153 19 28 31 52 27 52 -4 -1 -35 -35
-70 -78z"/>
<path d="M9008 15653 c7 -3 16 -2 19 1 4 3 -2 6 -13 5 -11 0 -14 -3 -6 -6z"/>
<path d="M8206 15795 c3 -11 10 -36 15 -55 4 -19 28 -79 54 -132 25 -54 45
-103 45 -110 0 -7 10 -29 22 -48 25 -41 28 -51 36 -150 l6 -75 6 58 5 59 30
-23 30 -23 -20 24 c-11 13 -30 36 -42 50 -13 13 -23 29 -23 34 0 5 10 1 23
-10 55 -49 55 -43 2 31 -54 74 -125 209 -125 235 0 7 -6 24 -14 38 -7 15 -23
47 -35 72 -12 25 -19 36 -15 25z"/>
<path d="M8586 15667 c3 -10 9 -15 12 -12 3 3 0 11 -7 18 -10 9 -11 8 -5 -6z"/>
<path d="M8600 15638 c0 -2 11 -28 25 -56 14 -29 25 -54 25 -56 0 -10 43 -77
46 -73 7 6 -54 136 -76 164 -11 14 -20 24 -20 21z"/>
<path d="M9152 14212 c-7 -19 41 -62 69 -62 12 0 23 8 26 20 3 11 10 17 16 13
5 -3 7 -1 4 5 -4 5 -16 8 -27 5 -14 -4 -20 0 -20 11 0 9 -3 16 -7 17 -5 0 -19
2 -31 3 -14 2 -26 -4 -30 -12z"/>
<path d="M8282 13795 c-1 -16 5 -43 13 -60 12 -24 14 -25 8 -5 -3 14 -10 41
-14 60 -7 34 -7 34 -7 5z"/>
<path d="M8521 13720 c-2 -3 -4 -40 -4 -83 -2 -77 4 -100 19 -75 12 19 22 98
12 98 -4 0 -9 -10 -10 -22 -1 -13 -4 2 -8 32 -4 30 -8 53 -9 50z"/>
<path d="M8178 13653 c7 -3 16 -2 19 1 4 3 -2 6 -13 5 -11 0 -14 -3 -6 -6z"/>
<path d="M7605 14620 c-3 -5 -1 -10 4 -10 6 0 11 5 11 10 0 6 -2 10 -4 10 -3
0 -8 -4 -11 -10z"/>
<path d="M10012 11850 c0 -14 2 -19 5 -12 2 6 2 18 0 25 -3 6 -5 1 -5 -13z"/>
<path d="M7515 22520 c-3 -6 1 -7 9 -4 18 7 21 14 7 14 -6 0 -13 -4 -16 -10z"/>
<path d="M12296 21115 c-9 -26 -7 -32 5 -12 6 10 9 21 6 23 -2 3 -7 -2 -11
-11z"/>
<path d="M11587 17568 c-4 -62 -7 -159 -7 -214 0 -270 -91 -1126 -170 -1596
-30 -173 -37 -241 -18 -163 18 77 87 501 112 690 55 417 82 742 92 1128 7 273
2 356 -9 155z"/>
<path d="M11372 15530 c0 -14 2 -19 5 -12 2 6 2 18 0 25 -3 6 -5 1 -5 -13z"/>
<path d="M5430 15140 c-8 -5 -10 -10 -5 -10 6 0 17 5 25 10 8 5 11 10 5 10 -5
0 -17 -5 -25 -10z"/>
<path d="M3466 11477 c-10 -36 -16 -72 -13 -79 6 -18 39 97 35 123 -2 13 -10
-5 -22 -44z"/>
<path d="M3570 11070 c-11 -21 -20 -48 -20 -59 0 -11 -8 -44 -18 -73 -36 -101
-42 -125 -42 -152 0 -23 4 -27 20 -23 11 3 18 1 14 -4 -3 -5 0 -9 5 -9 10 0
12 4 15 36 1 6 6 18 12 25 7 8 19 45 29 83 9 38 21 80 26 94 11 27 1 122 -12
122 -5 0 -18 -18 -29 -40z"/>
<path d="M3480 11085 c0 -7 -9 -35 -21 -62 -11 -26 -22 -59 -24 -73 -2 -14 -4
-29 -5 -35 -1 -5 -2 -27 -1 -49 1 -33 3 -37 16 -26 8 7 15 21 15 31 0 10 4 20
9 23 9 6 17 33 31 106 4 25 11 55 15 66 5 16 2 23 -14 27 -14 3 -21 0 -21 -8z"/>
<path d="M3470 10585 c-14 -8 -20 -14 -15 -14 6 0 21 6 35 14 14 8 21 14 15
14 -5 0 -21 -6 -35 -14z"/>
<path d="M15106 9220 c5 -8 42 -61 83 -118 42 -56 87 -118 100 -137 13 -19 26
-33 28 -31 7 7 -33 79 -79 141 -46 62 -145 171 -132 145z"/>
<path d="M15662 8220 c0 -14 2 -19 5 -12 2 6 2 18 0 25 -3 6 -5 1 -5 -13z"/>
<path d="M15680 8129 c0 -32 97 -259 112 -259 5 0 2 12 -6 28 -7 15 -28 65
-46 111 -38 98 -60 142 -60 120z"/>
<path d="M14966 8028 c-4 -15 5 -44 23 -83 l29 -60 -9 -135 c-5 -74 -14 -145
-19 -158 -17 -40 -11 -48 9 -12 14 26 20 68 26 159 7 124 7 124 26 100 10 -13
35 -54 54 -91 20 -37 40 -70 45 -73 17 -11 -9 49 -60 135 -101 171 -128 243
-83 226 8 -3 11 -1 8 4 -11 18 -43 10 -49 -12z"/>
<path d="M15037 8043 c-14 -14 -6 -19 22 -15 62 9 152 -58 250 -188 90 -119
106 -132 37 -30 -51 77 -178 210 -214 226 -36 15 -84 19 -95 7z"/>
<path d="M16131 7983 c7 -12 15 -20 18 -17 3 2 -3 12 -13 22 -17 16 -18 16 -5
-5z"/>
<path d="M15090 7986 c0 -2 8 -10 18 -17 15 -13 16 -12 3 4 -13 16 -21 21 -21
13z"/>
<path d="M15356 7935 c11 -48 50 -127 79 -160 30 -34 33 -42 -42 105 -24 47
-40 72 -37 55z"/>
<path d="M14820 7882 c0 -12 19 -26 26 -19 2 2 -2 10 -11 17 -9 8 -15 8 -15 2z"/>
<path d="M14778 7863 c7 -3 16 -2 19 1 4 3 -2 6 -13 5 -11 0 -14 -3 -6 -6z"/>
<path d="M15797 7839 c4 -13 8 -18 11 -10 2 7 -1 18 -6 23 -8 8 -9 4 -5 -13z"/>
<path d="M14860 7841 c0 -6 4 -13 10 -16 6 -3 7 1 4 9 -7 18 -14 21 -14 7z"/>
<path d="M15830 7771 c0 -4 18 -32 40 -62 21 -30 55 -83 74 -119 54 -100 56
-102 55 -45 -1 28 0 59 2 69 3 14 -9 28 -41 50 -25 17 -64 50 -87 73 -24 23
-43 39 -43 34z"/>
<path d="M15477 7715 c33 -47 136 -149 184 -182 70 -47 78 -47 24 -1 -27 24
-90 81 -139 128 -49 47 -80 72 -69 55z"/>
<path d="M15402 7698 c5 -13 86 -79 123 -100 19 -10 19 -10 5 8 -36 44 -136
117 -128 92z"/>
<path d="M15175 7623 c4 -10 15 -54 26 -98 11 -44 31 -115 44 -157 14 -43 25
-81 25 -86 0 -5 -37 -7 -82 -6 -73 3 -78 2 -43 -7 22 -6 63 -9 92 -7 45 3 54
0 64 -18 6 -12 22 -27 36 -33 38 -17 152 -13 238 9 43 11 89 18 102 15 21 -3
23 -2 13 11 -13 15 -42 19 -53 7 -4 -3 -24 -8 -45 -10 -20 -2 -67 -10 -104
-18 -159 -35 -171 -26 -234 182 -41 137 -75 233 -81 233 -3 0 -2 -8 2 -17z"/>
<path d="M16355 7626 c-96 -17 -146 -34 -234 -82 -36 -20 -76 -41 -88 -48 -25
-13 -38 -46 -18 -46 8 0 29 9 47 19 47 28 205 81 238 81 22 0 30 -5 33 -22 4
-20 4 -20 6 4 1 26 2 26 99 35 201 17 638 -6 787 -42 33 -8 76 -17 95 -20 90
-15 290 -67 440 -115 52 -16 197 -84 304 -142 182 -99 298 -182 439 -313 92
-87 85 -62 -10 33 -162 162 -417 321 -698 434 -122 49 -338 102 -468 114 -49
5 -67 10 -63 20 3 9 -14 14 -62 19 -37 3 -98 11 -137 16 -38 5 -171 12 -295
16 -137 4 -213 10 -195 15 20 5 8 6 -35 3 -54 -3 -60 -2 -35 7 35 12 359 16
460 5 39 -4 96 -10 128 -13 31 -4 57 -11 57 -15 0 -5 11 -9 24 -9 57 0 371
-61 467 -90 134 -41 315 -111 404 -155 141 -70 339 -217 489 -364 109 -105
107 -88 -4 37 -147 166 -440 345 -748 456 -236 86 -366 115 -682 152 -188 22
-640 28 -745 10z m53 -33 c-10 -2 -26 -2 -35 0 -10 3 -2 5 17 5 19 0 27 -2 18
-5z"/>
<path d="M14750 7530 c-6 -11 -8 -20 -6 -20 3 0 10 9 16 20 6 11 8 20 6 20 -3
0 -10 -9 -16 -20z"/>
<path d="M15728 7525 c6 -11 24 -35 41 -54 17 -19 31 -36 31 -38 0 -6 -43 18
-60 33 -52 45 -195 57 -270 23 -47 -21 -80 -46 -80 -61 0 -4 9 1 21 13 11 11
36 27 55 35 37 15 88 19 80 5 -3 -4 35 -11 84 -13 75 -5 95 -9 122 -30 41 -31
104 -61 118 -56 6 2 -26 39 -71 83 -45 44 -77 71 -71 60z"/>
<path d="M14741 7488 c-1 -10 19 -30 47 -48 l47 -32 -35 31 c-19 17 -38 31
-42 31 -3 0 -9 8 -11 18 -4 15 -5 15 -6 0z"/>
<path d="M16301 7457 c-13 -21 -12 -21 5 -5 10 10 16 20 13 22 -3 3 -11 -5
-18 -17z"/>
<path d="M16235 7388 c-75 -62 -154 -139 -177 -173 -12 -16 4 -4 34 29 31 32
61 56 66 52 5 -3 38 26 72 64 34 39 60 70 59 70 -2 0 -26 -19 -54 -42z"/>
<path d="M15386 7397 c3 -10 9 -15 12 -12 3 3 0 11 -7 18 -10 9 -11 8 -5 -6z"/>
<path d="M14867 7389 c7 -7 15 -10 18 -7 3 3 -2 9 -12 12 -14 6 -15 5 -6 -5z"/>
<path d="M14957 7354 c9 -24 44 -53 63 -53 11 0 10 3 -4 12 -11 7 -30 23 -43
36 -20 21 -23 21 -16 5z"/>
<path d="M20490 7330 c0 -14 7 -46 15 -72 12 -42 12 -48 0 -48 -19 0 -19 0 2
-46 15 -33 18 -73 19 -279 0 -160 4 -249 12 -268 7 -16 12 -32 12 -36 0 -5
-30 -16 -67 -25 -54 -14 -80 -27 -124 -66 l-56 -49 -39 27 -39 27 40 5 40 6
-40 8 c-53 10 -80 26 -144 81 -63 54 -187 119 -267 140 -38 10 -83 13 -138 9
-68 -4 -91 -10 -146 -41 -166 -91 -319 -264 -320 -362 0 -30 27 -62 46 -54 11
4 13 -2 8 -25 -8 -42 35 -98 85 -111 83 -22 99 -25 170 -22 52 2 72 0 67 -8
-16 -25 25 -8 110 48 l91 58 84 -47 c65 -36 95 -61 132 -109 l49 -61 -34 -48
c-25 -35 -42 -48 -64 -50 -39 -5 -63 -28 -57 -55 7 -29 127 -270 152 -306 13
-17 68 -51 153 -93 107 -53 152 -69 229 -83 l96 -18 24 -46 c13 -25 57 -98 98
-161 63 -99 157 -272 274 -504 28 -56 29 -63 24 -150 -3 -50 -9 -102 -13 -115
-5 -16 -4 -22 4 -17 6 3 13 20 17 37 11 47 17 28 26 -75 12 -148 46 -254 68
-217 6 9 16 -11 30 -60 38 -131 72 -218 102 -262 22 -32 29 -53 29 -92 0 -115
-47 -329 -95 -435 -20 -45 -43 -116 -50 -157 -8 -45 -22 -88 -35 -105 -12 -16
-34 -69 -50 -116 -51 -158 -116 -336 -138 -377 l-20 -41 -94 -13 c-157 -21
-332 -78 -415 -134 -18 -12 -33 -27 -33 -33 0 -7 -6 -14 -13 -17 -8 -3 -33
-38 -57 -79 -25 -40 -48 -75 -51 -78 -4 -3 -10 -17 -14 -32 -4 -15 -13 -32
-20 -38 -9 -8 -11 -20 -5 -40 4 -16 6 -31 3 -34 -3 -3 -6 -56 -7 -118 -1 -107
-2 -113 -21 -111 -19 1 -19 1 -2 -12 16 -12 15 -14 -15 -34 -103 -66 -161
-121 -145 -137 3 -3 -15 -36 -40 -72 -25 -36 -46 -73 -48 -82 -2 -8 -8 -28
-15 -45 -9 -23 -9 -40 0 -70 24 -81 38 -103 68 -110 17 -3 34 -16 40 -30 7
-14 16 -25 21 -25 5 0 12 -11 15 -25 4 -14 10 -25 15 -25 16 0 92 93 87 106
-12 32 103 144 176 170 40 14 44 13 68 -6 14 -11 38 -28 54 -38 16 -9 40 -27
55 -38 206 -168 1184 -238 1873 -134 210 31 334 53 423 74 66 16 132 25 194
25 105 1 219 18 364 56 93 24 240 77 262 95 6 4 37 22 70 40 49 27 56 29 41
11 -11 -11 -17 -24 -14 -27 14 -14 157 85 246 170 62 59 143 185 196 304 84
188 127 379 130 574 0 64 4 114 9 111 4 -2 7 -10 7 -18 0 -8 5 -17 11 -21 8
-4 9 12 4 57 -11 103 -22 149 -54 234 -29 73 -32 92 -35 226 -5 159 -26 267
-86 429 -49 132 -133 299 -186 368 -84 109 -113 154 -164 254 -50 96 -86 138
-120 138 -11 0 -22 12 -29 31 -13 37 -58 83 -64 66 -2 -7 -16 2 -31 20 -16 19
-33 30 -41 26 -8 -3 -12 -9 -9 -14 3 -5 2 -9 -2 -9 -7 0 -170 92 -334 188 -47
27 -138 80 -204 118 -80 46 -131 84 -156 114 -21 25 -63 74 -92 110 -30 36
-92 94 -138 130 -111 86 -481 455 -551 550 -138 187 -143 198 -199 380 -18 58
-36 110 -40 115 -4 6 -17 40 -28 76 -52 167 -113 272 -212 362 -62 55 -141
170 -205 297 -18 36 -55 102 -83 146 -27 45 -59 109 -71 142 -13 33 -32 69
-43 79 -20 18 -20 18 -13 -27 3 -25 9 -54 12 -65 5 -17 2 -16 -15 5 -11 14
-23 23 -26 20 -3 -3 -11 -59 -17 -123 -10 -92 -10 -142 -1 -233 7 -64 11 -118
9 -120 -2 -2 -24 -1 -48 2 -40 6 -49 13 -109 87 -36 45 -92 122 -125 171 -34
50 -75 111 -92 136 -59 87 -97 154 -128 225 -17 39 -39 82 -48 95 l-17 24 0
-24z m-640 -626 c36 -8 72 -20 80 -25 12 -9 11 -9 -5 -4 -11 3 -54 11 -97 18
-78 11 -89 10 -215 -26 -29 -8 -53 -12 -53 -8 0 5 30 22 68 38 74 33 105 34
222 7z m923 -58 l20 -29 -36 5 c-21 2 -37 0 -37 -4 0 -4 -17 -8 -38 -8 -27 0
-39 4 -39 14 0 10 10 13 36 10 20 -2 30 -1 23 2 -13 6 -47 64 -37 64 3 0 17
-7 31 -16 29 -20 43 -12 23 13 -10 14 -8 13 10 -2 13 -11 32 -33 44 -49z
m-772 -3 c13 -15 12 -15 -8 -4 -24 12 -29 21 -14 21 5 0 15 -7 22 -17z m69
-50 c0 -7 -39 17 -46 28 -3 6 5 3 20 -6 14 -10 26 -19 26 -22z m557 31 c-3 -3
-12 -4 -19 -1 -8 3 -5 6 6 6 11 1 17 -2 13 -5z m-522 -55 c11 -17 -1 -21 -15
-4 -8 9 -8 15 -2 15 6 0 14 -5 17 -11z m1135 -171 c18 -29 41 -65 51 -80 l19
-27 -29 17 c-16 9 -27 20 -24 24 2 5 -9 31 -26 58 -17 28 -31 52 -31 55 0 13
11 1 40 -47z m64 -47 c5 -28 4 -31 -8 -22 -15 12 -27 57 -18 66 9 9 19 -8 26
-44z m-74 14 c7 -9 8 -15 2 -15 -5 0 -12 7 -16 15 -3 8 -4 15 -2 15 2 0 9 -7
16 -15z m-578 -236 c26 -14 23 -23 -20 -69 -33 -34 -45 -40 -80 -40 -45 0 -59
11 -38 29 7 6 21 32 31 57 17 45 18 46 53 39 20 -4 45 -11 54 -16z m-174 -16
c2 -8 -6 -13 -22 -13 -25 0 -33 10 -19 24 10 10 36 3 41 -11z m1102 -2959 c53
-142 70 -193 70 -206 0 -4 -12 0 -27 8 -29 15 -53 18 -53 8 0 -4 20 -24 45
-46 45 -40 90 -110 78 -121 -3 -4 2 -18 11 -31 19 -30 28 -27 -135 -51 -58 -9
-140 -24 -182 -34 l-77 -18 6 26 c3 14 14 53 24 86 10 33 26 87 35 120 9 32
28 81 41 108 14 26 43 105 65 173 22 69 42 124 44 122 3 -2 27 -67 55 -144z"/>
<path d="M15500 7336 c0 -2 7 -7 16 -10 8 -3 12 -2 9 4 -6 10 -25 14 -25 6z"/>
<path d="M15048 7293 c7 -3 16 -2 19 1 4 3 -2 6 -13 5 -11 0 -14 -3 -6 -6z"/>
<path d="M15710 7222 c0 -8 72 -73 76 -69 2 2 -14 20 -36 40 -22 19 -40 33
-40 29z"/>
<path d="M15996 7133 c-10 -13 -32 -33 -50 -44 -37 -23 -31 -24 16 -5 18 8 40
26 48 40 18 35 10 40 -14 9z"/>
<path d="M15800 7136 c0 -9 85 -66 99 -66 9 0 3 7 -14 16 -16 8 -37 21 -45 28
-20 17 -40 28 -40 22z"/>
<path d="M18645 6830 c-4 -6 9 -10 31 -10 42 0 42 4 2 14 -15 3 -30 2 -33 -4z"/>
<path d="M18546 6778 c-20 -29 -33 -54 -30 -57 6 -7 69 62 66 73 -2 4 3 14 9
22 8 10 8 14 0 14 -6 0 -26 -23 -45 -52z"/>
<path d="M18747 6817 c33 -12 98 -66 105 -87 2 -7 17 -14 32 -15 18 -2 47 -21
77 -51 27 -27 49 -42 49 -34 0 20 -97 110 -119 110 -11 0 -29 14 -41 30 -26
36 -69 60 -107 59 l-28 0 32 -12z"/>
<path d="M18535 6700 c3 -5 8 -10 11 -10 2 0 4 5 4 10 0 6 -5 10 -11 10 -5 0
-7 -4 -4 -10z"/>
<path d="M18560 6638 c0 -16 5 -28 10 -28 13 0 13 20 0 40 -8 12 -10 9 -10
-12z"/>
<path d="M18586 6578 c4 -13 10 -25 14 -28 15 -11 30 -50 30 -79 0 -27 15 -50
26 -39 6 7 -23 110 -33 117 -6 3 -13 16 -17 29 -4 12 -12 22 -17 22 -6 0 -7
-9 -3 -22z"/>
<path d="M19040 6581 c0 -5 7 -11 15 -15 9 -3 15 -18 15 -40 0 -19 8 -44 20
-58 10 -12 30 -36 44 -53 13 -16 28 -26 32 -22 8 8 -17 59 -47 92 -10 11 -21
34 -25 50 -4 17 -11 36 -17 43 -11 14 -37 16 -37 3z"/>
<path d="M18646 6358 c12 -42 47 -103 51 -91 5 15 -37 113 -49 113 -5 0 -6
-10 -2 -22z"/>
<path d="M19170 6362 c0 -7 9 -41 21 -75 16 -47 19 -74 14 -112 -4 -27 -6 -71
-6 -97 1 -33 -2 -48 -11 -49 -7 0 -5 -4 5 -7 16 -7 15 -10 -11 -29 l-29 -22
-54 25 c-38 18 -63 24 -89 20 -24 -4 -53 2 -90 17 -49 21 -59 30 -90 87 -24
43 -46 70 -70 83 l-35 19 35 -34 c19 -19 41 -52 49 -74 19 -54 26 -61 94 -95
43 -21 73 -29 106 -28 26 1 59 -6 76 -15 32 -17 95 -22 95 -8 0 5 12 14 26 20
14 7 22 17 18 23 -12 20 -15 111 -3 125 19 24 -9 194 -37 224 -10 10 -14 11
-14 2z"/>
<path d="M2760 1540 c0 -5 10 -10 23 -10 18 0 19 2 7 10 -19 13 -30 13 -30 0z"/>
<path d="M3150 1501 c0 -15 25 -20 69 -14 59 8 50 23 -14 23 -30 0 -55 -4 -55
-9z"/>
<path d="M3631 1461 c-22 -14 33 -26 56 -12 16 9 16 10 1 11 -9 0 -22 2 -30 5
-7 3 -20 1 -27 -4z"/>
</g>
</svg>
